<mxfile host="app.diagrams.net" modified="2023-09-27T04:32:24.539Z" agent="Mozilla/5.0 (X11; Linux x86_64) AppleWebKit/537.36 (KHTML, like Gecko) Chrome/117.0.0.0 Safari/537.36" etag="6uapkRU7JnyzROn-LSrK" version="21.8.2" type="github">
  <diagram id="C5RBs43oDa-KdzZeNtuy" name="Page-1">
    <mxGraphModel dx="794" dy="742" grid="1" gridSize="10" guides="1" tooltips="1" connect="1" arrows="1" fold="1" page="1" pageScale="1" pageWidth="827" pageHeight="1169" math="0" shadow="0">
      <root>
        <mxCell id="WIyWlLk6GJQsqaUBKTNV-0" />
        <mxCell id="WIyWlLk6GJQsqaUBKTNV-1" parent="WIyWlLk6GJQsqaUBKTNV-0" />
        <mxCell id="8ld63nV8x0DAU4LqRC4Y-2" value="Diagrama de Fluxos do Programa do cadastro à reserva" style="swimlane;childLayout=stackLayout;resizeParent=1;resizeParentMax=0;horizontal=1;startSize=20;horizontalStack=0;html=1;" vertex="1" parent="WIyWlLk6GJQsqaUBKTNV-1">
          <mxGeometry x="70" y="80" width="1070" height="330" as="geometry" />
        </mxCell>
        <mxCell id="8ld63nV8x0DAU4LqRC4Y-3" value="Gerente" style="swimlane;startSize=20;horizontal=0;html=1;" vertex="1" parent="8ld63nV8x0DAU4LqRC4Y-2">
          <mxGeometry y="20" width="1070" height="160" as="geometry" />
        </mxCell>
        <mxCell id="8ld63nV8x0DAU4LqRC4Y-12" style="edgeStyle=orthogonalEdgeStyle;rounded=0;orthogonalLoop=1;jettySize=auto;html=1;exitX=1;exitY=0.5;exitDx=0;exitDy=0;entryX=0;entryY=0.5;entryDx=0;entryDy=0;" edge="1" parent="8ld63nV8x0DAU4LqRC4Y-3" source="8ld63nV8x0DAU4LqRC4Y-6" target="8ld63nV8x0DAU4LqRC4Y-7">
          <mxGeometry relative="1" as="geometry" />
        </mxCell>
        <mxCell id="8ld63nV8x0DAU4LqRC4Y-6" value="" style="ellipse;whiteSpace=wrap;html=1;aspect=fixed;fillColor=#dae8fc;strokeColor=#6c8ebf;" vertex="1" parent="8ld63nV8x0DAU4LqRC4Y-3">
          <mxGeometry x="30" y="30" width="50" height="50" as="geometry" />
        </mxCell>
        <mxCell id="8ld63nV8x0DAU4LqRC4Y-13" style="edgeStyle=orthogonalEdgeStyle;rounded=0;orthogonalLoop=1;jettySize=auto;html=1;exitX=1;exitY=0.5;exitDx=0;exitDy=0;entryX=0;entryY=0.5;entryDx=0;entryDy=0;" edge="1" parent="8ld63nV8x0DAU4LqRC4Y-3" source="8ld63nV8x0DAU4LqRC4Y-7" target="8ld63nV8x0DAU4LqRC4Y-8">
          <mxGeometry relative="1" as="geometry" />
        </mxCell>
        <mxCell id="8ld63nV8x0DAU4LqRC4Y-7" value="Cadastra um hotel" style="rounded=1;whiteSpace=wrap;html=1;fontSize=12;glass=0;strokeWidth=1;shadow=0;" vertex="1" parent="8ld63nV8x0DAU4LqRC4Y-3">
          <mxGeometry x="110" y="35" width="120" height="45" as="geometry" />
        </mxCell>
        <mxCell id="8ld63nV8x0DAU4LqRC4Y-23" style="edgeStyle=orthogonalEdgeStyle;rounded=0;orthogonalLoop=1;jettySize=auto;html=1;exitX=0.5;exitY=0;exitDx=0;exitDy=0;entryX=0.5;entryY=0;entryDx=0;entryDy=0;" edge="1" parent="8ld63nV8x0DAU4LqRC4Y-3" source="8ld63nV8x0DAU4LqRC4Y-8" target="8ld63nV8x0DAU4LqRC4Y-7">
          <mxGeometry relative="1" as="geometry" />
        </mxCell>
        <mxCell id="8ld63nV8x0DAU4LqRC4Y-8" value="Cadastra um quarto" style="rounded=1;whiteSpace=wrap;html=1;fontSize=12;glass=0;strokeWidth=1;shadow=0;" vertex="1" parent="8ld63nV8x0DAU4LqRC4Y-3">
          <mxGeometry x="260" y="35" width="120" height="45" as="geometry" />
        </mxCell>
        <mxCell id="8ld63nV8x0DAU4LqRC4Y-16" style="edgeStyle=orthogonalEdgeStyle;rounded=0;orthogonalLoop=1;jettySize=auto;html=1;exitX=0;exitY=0.5;exitDx=0;exitDy=0;exitPerimeter=0;entryX=1;entryY=0.5;entryDx=0;entryDy=0;dashed=1;" edge="1" parent="8ld63nV8x0DAU4LqRC4Y-3" source="8ld63nV8x0DAU4LqRC4Y-14" target="8ld63nV8x0DAU4LqRC4Y-8">
          <mxGeometry relative="1" as="geometry" />
        </mxCell>
        <mxCell id="8ld63nV8x0DAU4LqRC4Y-14" value="" style="shape=note;whiteSpace=wrap;html=1;backgroundOutline=1;darkOpacity=0.05;size=17;" vertex="1" parent="8ld63nV8x0DAU4LqRC4Y-3">
          <mxGeometry x="430" y="10" width="40" height="60" as="geometry" />
        </mxCell>
        <mxCell id="8ld63nV8x0DAU4LqRC4Y-18" value="Alimenta o quarto com informações para reserva" style="text;strokeColor=none;fillColor=none;align=left;verticalAlign=middle;spacingLeft=4;spacingRight=4;overflow=hidden;points=[[0,0.5],[1,0.5]];portConstraint=eastwest;rotatable=0;whiteSpace=wrap;html=1;" vertex="1" parent="8ld63nV8x0DAU4LqRC4Y-3">
          <mxGeometry x="470" y="10" width="80" height="70" as="geometry" />
        </mxCell>
        <mxCell id="8ld63nV8x0DAU4LqRC4Y-24" style="edgeStyle=orthogonalEdgeStyle;rounded=0;orthogonalLoop=1;jettySize=auto;html=1;exitX=0.5;exitY=1;exitDx=0;exitDy=0;entryX=0.5;entryY=0;entryDx=0;entryDy=0;startArrow=classicThin;startFill=1;" edge="1" parent="8ld63nV8x0DAU4LqRC4Y-2" source="8ld63nV8x0DAU4LqRC4Y-8" target="8ld63nV8x0DAU4LqRC4Y-19">
          <mxGeometry relative="1" as="geometry" />
        </mxCell>
        <mxCell id="8ld63nV8x0DAU4LqRC4Y-4" value="Cliente" style="swimlane;startSize=20;horizontal=0;html=1;" vertex="1" parent="8ld63nV8x0DAU4LqRC4Y-2">
          <mxGeometry y="180" width="1070" height="150" as="geometry" />
        </mxCell>
        <mxCell id="8ld63nV8x0DAU4LqRC4Y-25" style="edgeStyle=orthogonalEdgeStyle;rounded=0;orthogonalLoop=1;jettySize=auto;html=1;exitX=1;exitY=0.5;exitDx=0;exitDy=0;entryX=0;entryY=0.5;entryDx=0;entryDy=0;" edge="1" parent="8ld63nV8x0DAU4LqRC4Y-4" source="8ld63nV8x0DAU4LqRC4Y-19" target="8ld63nV8x0DAU4LqRC4Y-20">
          <mxGeometry relative="1" as="geometry" />
        </mxCell>
        <mxCell id="8ld63nV8x0DAU4LqRC4Y-19" value="Seleciona um quarto disponível" style="rounded=1;whiteSpace=wrap;html=1;fontSize=12;glass=0;strokeWidth=1;shadow=0;" vertex="1" parent="8ld63nV8x0DAU4LqRC4Y-4">
          <mxGeometry x="260" y="40" width="120" height="50" as="geometry" />
        </mxCell>
        <mxCell id="8ld63nV8x0DAU4LqRC4Y-26" style="edgeStyle=orthogonalEdgeStyle;rounded=0;orthogonalLoop=1;jettySize=auto;html=1;exitX=1;exitY=0.5;exitDx=0;exitDy=0;entryX=0;entryY=0.5;entryDx=0;entryDy=0;" edge="1" parent="8ld63nV8x0DAU4LqRC4Y-4" source="8ld63nV8x0DAU4LqRC4Y-20">
          <mxGeometry relative="1" as="geometry">
            <mxPoint x="600" y="65" as="targetPoint" />
          </mxGeometry>
        </mxCell>
        <mxCell id="8ld63nV8x0DAU4LqRC4Y-20" value="Efetua Login no sistema caso ja não esteja logado" style="rounded=1;whiteSpace=wrap;html=1;fontSize=12;glass=0;strokeWidth=1;shadow=0;" vertex="1" parent="8ld63nV8x0DAU4LqRC4Y-4">
          <mxGeometry x="440" y="40" width="120" height="50" as="geometry" />
        </mxCell>
        <mxCell id="8ld63nV8x0DAU4LqRC4Y-27" value="" style="ellipse;whiteSpace=wrap;html=1;aspect=fixed;fillColor=#dae8fc;strokeColor=#6c8ebf;" vertex="1" parent="8ld63nV8x0DAU4LqRC4Y-4">
          <mxGeometry x="890" y="40" width="50" height="50" as="geometry" />
        </mxCell>
        <mxCell id="8ld63nV8x0DAU4LqRC4Y-30" value="Sim" style="edgeStyle=orthogonalEdgeStyle;rounded=0;orthogonalLoop=1;jettySize=auto;html=1;exitX=1;exitY=0.5;exitDx=0;exitDy=0;entryX=0;entryY=0.5;entryDx=0;entryDy=0;strokeColor=default;" edge="1" parent="8ld63nV8x0DAU4LqRC4Y-4" source="8ld63nV8x0DAU4LqRC4Y-28" target="8ld63nV8x0DAU4LqRC4Y-27">
          <mxGeometry relative="1" as="geometry" />
        </mxCell>
        <mxCell id="8ld63nV8x0DAU4LqRC4Y-37" value="Não" style="edgeStyle=orthogonalEdgeStyle;rounded=0;orthogonalLoop=1;jettySize=auto;html=1;exitX=0.5;exitY=1;exitDx=0;exitDy=0;entryX=0;entryY=0.5;entryDx=0;entryDy=0;" edge="1" parent="8ld63nV8x0DAU4LqRC4Y-4" source="8ld63nV8x0DAU4LqRC4Y-28" target="8ld63nV8x0DAU4LqRC4Y-34">
          <mxGeometry relative="1" as="geometry" />
        </mxCell>
        <mxCell id="8ld63nV8x0DAU4LqRC4Y-28" value="Efetiva a reserva" style="rhombus;whiteSpace=wrap;html=1;fillColor=#fff2cc;strokeColor=#d6b656;" vertex="1" parent="8ld63nV8x0DAU4LqRC4Y-4">
          <mxGeometry x="600" y="25" width="80" height="80" as="geometry" />
        </mxCell>
        <mxCell id="8ld63nV8x0DAU4LqRC4Y-33" value="" style="ellipse;whiteSpace=wrap;html=1;aspect=fixed;fillColor=#f8cecc;strokeColor=#b85450;" vertex="1" parent="8ld63nV8x0DAU4LqRC4Y-4">
          <mxGeometry x="890" y="90" width="50" height="50" as="geometry" />
        </mxCell>
        <mxCell id="8ld63nV8x0DAU4LqRC4Y-36" style="edgeStyle=orthogonalEdgeStyle;rounded=0;orthogonalLoop=1;jettySize=auto;html=1;exitX=1;exitY=0.5;exitDx=0;exitDy=0;entryX=0;entryY=0.5;entryDx=0;entryDy=0;" edge="1" parent="8ld63nV8x0DAU4LqRC4Y-4" source="8ld63nV8x0DAU4LqRC4Y-34" target="8ld63nV8x0DAU4LqRC4Y-33">
          <mxGeometry relative="1" as="geometry" />
        </mxCell>
        <mxCell id="8ld63nV8x0DAU4LqRC4Y-34" value="Reserva Cancelada" style="rounded=1;whiteSpace=wrap;html=1;fontSize=12;glass=0;strokeWidth=1;shadow=0;" vertex="1" parent="8ld63nV8x0DAU4LqRC4Y-4">
          <mxGeometry x="710" y="90" width="120" height="50" as="geometry" />
        </mxCell>
        <mxCell id="8ld63nV8x0DAU4LqRC4Y-39" style="edgeStyle=orthogonalEdgeStyle;rounded=0;orthogonalLoop=1;jettySize=auto;html=1;exitX=1;exitY=0.5;exitDx=0;exitDy=0;entryX=0.5;entryY=1;entryDx=0;entryDy=0;endArrow=classic;endFill=1;jumpStyle=none;dashed=1;shape=link;" edge="1" parent="8ld63nV8x0DAU4LqRC4Y-4" source="8ld63nV8x0DAU4LqRC4Y-38" target="8ld63nV8x0DAU4LqRC4Y-20">
          <mxGeometry relative="1" as="geometry" />
        </mxCell>
        <mxCell id="8ld63nV8x0DAU4LqRC4Y-38" value="Consegue ver histórico de hospedagens" style="rounded=1;whiteSpace=wrap;html=1;fontSize=12;glass=0;strokeWidth=1;shadow=0;" vertex="1" parent="8ld63nV8x0DAU4LqRC4Y-4">
          <mxGeometry x="80" y="90" width="120" height="50" as="geometry" />
        </mxCell>
      </root>
    </mxGraphModel>
  </diagram>
</mxfile>
